<?xml version="1.0" encoding="UTF-8" standalone="no"?>
<!-- Created with Inkscape (http://www.inkscape.org/) -->

<svg
   xmlns:dc="http://purl.org/dc/elements/1.1/"
   xmlns:cc="http://creativecommons.org/ns#"
   xmlns:rdf="http://www.w3.org/1999/02/22-rdf-syntax-ns#"
   xmlns:svg="http://www.w3.org/2000/svg"
   xmlns="http://www.w3.org/2000/svg"
   xmlns:sodipodi="http://sodipodi.sourceforge.net/DTD/sodipodi-0.dtd"
   xmlns:inkscape="http://www.inkscape.org/namespaces/inkscape"
   width="400"
   height="300"
   id="svg4578"
   sodipodi:version="0.32"
   inkscape:version="0.48.4 r9939"
   version="1.0"
   sodipodi:docname="official-logo-monochrome.svg"
   inkscape:output_extension="org.inkscape.output.svg.inkscape"
   inkscape:export-filename="/home/hvogel/Development/Web/openSUSE/www.o.o/img/logo.png"
   inkscape:export-xdpi="101.05"
   inkscape:export-ydpi="101.05">
  <defs
     id="defs4580" />
  <sodipodi:namedview
     id="base"
     pagecolor="#ffffff"
     bordercolor="#d6d6d6"
     borderopacity="1"
     gridtolerance="10000"
     guidetolerance="10"
     objecttolerance="10"
     inkscape:pageopacity="0.0"
     inkscape:pageshadow="2"
     inkscape:zoom="1.4142136"
     inkscape:cx="109.13292"
     inkscape:cy="200.66743"
     inkscape:document-units="px"
     inkscape:current-layer="layer1"
     width="400px"
     height="300px"
     borderlayer="true"
     inkscape:showpageshadow="false"
     inkscape:window-width="1680"
     inkscape:window-height="984"
     inkscape:window-x="0"
     inkscape:window-y="27"
     showgrid="false"
     inkscape:window-maximized="1" />
  <metadata
     id="metadata4583">
    <rdf:RDF>
      <cc:Work
         rdf:about="">
        <dc:format>image/svg+xml</dc:format>
        <dc:type
           rdf:resource="http://purl.org/dc/dcmitype/StillImage" />
        <dc:title>openSUSE official logo</dc:title>
      </cc:Work>
    </rdf:RDF>
  </metadata>
  <g
     inkscape:label="Layer 1"
     inkscape:groupmode="layer"
     id="layer1">
    <path
       sodipodi:type="inkscape:offset"
       inkscape:radius="0.1332397"
       inkscape:original="M 172.3125 53.1875 C 153.47387 53.25257 128.05113 56.62065 96.46875 76.03125 A 9.2369074 9.2369074 0 0 0 96.40625 76.09375 L 95.34375 76.75 L 95.3125 76.78125 C 76.60703 88.460999 62.985707 103.34257 55.84375 121.03125 A 9.2369074 9.2369074 0 0 0 55.84375 121.0625 C 53.147111 127.75943 50.03326 139.80838 53.40625 153.1875 C 54.852437 158.96254 57.470628 164.46568 60.9375 169.4375 L 60.90625 169.4375 C 63.324461 172.91292 66.252131 175.95326 69.46875 178.625 C 68.314114 178.33242 67.134196 178.09375 65.90625 178.09375 L 58.8125 178.09375 C 50.934262 178.09375 44.03125 184.47974 44.03125 192.65625 L 44.03125 204.15625 C 44.03125 212.12112 50.629319 218.78125 58.625 218.78125 L 66.0625 218.78125 C 66.678997 218.78125 67.277658 218.67033 67.875 218.59375 C 68.265342 224.00033 73.110899 228.8125 78.59375 228.8125 L 79.21875 228.8125 C 84.826559 228.8125 89.440715 224.28785 89.90625 218.78125 C 92.608689 218.64048 95.410103 217.95379 97.875 216.34375 C 100.13958 217.86121 102.86332 218.78125 105.875 218.78125 L 113.5625 218.78125 C 115.45815 218.78125 117.37169 217.88368 119.125 216.6875 C 120.8631 217.88312 122.81207 218.78125 124.96875 218.78125 L 125.625 218.78125 C 128.20703 218.78125 130.56503 217.67223 132.46875 216.0625 C 134.36876 217.65692 136.68481 218.78125 139.21875 218.78125 L 139.875 218.78125 C 141.89068 218.78125 143.7231 218.02915 145.375 217 C 147.16664 218.01532 149.07263 218.75 151.03125 218.75 L 170.90625 218.75 C 175.36105 218.75 179.94903 217.01717 183.25 213.84375 C 186.8391 216.98295 191.49799 218.96875 196.34375 218.96875 L 207.59375 218.96875 C 211.79048 218.96875 215.83683 217.45654 219.1875 215.03125 C 221.53016 217.27884 224.63193 218.75 227.6875 218.75 L 247.5625 218.75 C 251.14161 218.75 254.84697 217.66822 257.875 215.59375 C 260.06099 217.45833 262.75364 218.75 265.59375 218.75 L 289.9375 218.75 C 296.03519 218.75 302.40625 212.89397 302.40625 206.4375 L 302.40625 205.625 C 302.40625 201.51753 299.70965 197.82811 296.25 195.5625 C 296.73302 194.32335 297.0625 193.02097 297.0625 191.6875 L 297.0625 190.875 C 297.0625 189.63777 296.76391 188.43647 296.34375 187.28125 C 296.70274 187.27363 297.02329 187.13701 297.375 187.09375 C 297.77278 187.14222 298.11842 187.3125 298.53125 187.3125 L 298.6875 187.3125 C 298.99246 187.3125 299.26207 187.18213 299.5625 187.15625 A 9.2369074 9.2369074 0 0 0 301.34375 187.34375 C 306.39958 187.34375 310.96875 183.73748 310.96875 177.75 L 310.96875 173.90625 A 9.2369074 9.2369074 0 0 0 301.71875 164.65625 L 301.15625 164.65625 C 300.7482 164.65625 300.25668 164.9088 299.8125 164.96875 C 299.4946 164.91936 299.04549 164.65625 298.78125 164.65625 L 294.375 164.65625 C 294.15839 164.65625 293.96498 164.79555 293.75 164.8125 C 292.21111 164.08023 290.58773 163.59375 288.9375 163.59375 L 265.6875 163.59375 L 265.65625 163.59375 C 262.82322 163.59375 260.11903 164.88199 257.90625 166.75 C 255.64262 164.88744 252.88962 163.625 250.09375 163.625 L 239.625 163.625 A 9.2369074 9.2369074 0 0 0 239.71875 162.4375 L 239.71875 162.0625 A 9.2369074 9.2369074 0 0 0 237.71875 156.34375 C 237.71836 156.34325 237.67991 156.3042 237.6875 156.3125 C 237.67969 156.30216 237.66617 156.26323 237.65625 156.25 C 237.70871 156.30706 237.57516 156.17874 237.53125 156.125 A 9.2369074 9.2369074 0 0 0 237.4375 156 C 237.43064 155.99056 237.44457 155.97851 237.4375 155.96875 C 237.19968 155.64045 236.83638 155.11916 236.40625 154.46875 C 235.54599 153.16793 234.42425 151.31924 233.375 149.21875 C 231.2765 145.01778 229.98752 139.92121 230.40625 137.40625 A 9.2369074 9.2369074 0 0 0 230.40625 137.375 C 230.44233 137.15704 230.37486 137.38377 230.40625 137.25 C 231.38131 137.12243 234.70256 137.16483 239.5625 137.71875 C 242.94431 138.10361 247.05873 138.55408 251.5625 138.65625 A 9.2369074 9.2369074 0 0 0 251.71875 138.6875 C 263.96881 138.75981 276.43604 136.83295 285.84375 132.71875 C 290.50571 130.67983 294.12858 129.33376 297.71875 126.1875 C 297.74155 126.16752 297.75845 126.14513 297.78125 126.125 C 297.87389 126.04321 297.96985 125.99053 298.0625 125.90625 L 298.03125 125.875 C 300.77703 123.46879 301.38531 121.32007 301.75 120.21875 L 301.84375 119.96875 C 301.85365 119.94082 301.89655 119.8696 301.90625 119.84375 L 302.03125 119.5625 A 9.2369074 9.2369074 0 0 0 302.125 119.3125 C 302.98566 117.1097 303.18399 115.87461 303.46875 114.53125 L 303.5 114.53125 C 303.50345 114.51498 303.49653 114.48505 303.5 114.46875 C 303.63296 113.87421 303.88525 112.9674 303.75 111.21875 C 303.71181 110.72503 303.40889 109.97626 303.21875 109.3125 A 9.2369074 9.2369074 0 0 0 303.3125 109.15625 L 303.5 108.8125 A 9.2369074 9.2369074 0 0 0 304.53125 102.9375 C 303.92574 99.096467 302.59346 95.043901 300.65625 89.65625 C 298.71904 84.268599 297.65009 79.44609 292.71875 74.34375 A 9.2369074 9.2369074 0 0 0 292.65625 74.28125 C 291.98007 73.589147 290.14976 71.41239 287.15625 69.65625 A 9.2369074 9.2369074 0 0 0 287.125 69.65625 C 278.21412 64.46151 266.3838 61.474392 255.96875 59.15625 C 245.5537 56.838108 236.97641 55.556052 235.9375 55.40625 A 9.2369074 9.2369074 0 0 0 231.375 55.90625 L 231.125 56 A 9.2369074 9.2369074 0 0 0 226.15625 60.4375 C 215.94988 57.632264 200.40832 54.032687 184.25 53.46875 C 180.64639 53.341753 176.66273 53.172474 172.3125 53.1875 z M 270.625 87.625 C 273.33489 87.625 275.3125 89.594403 275.3125 92.34375 C 275.3125 95.093099 273.3349 97.0625 270.625 97.0625 C 267.9151 97.0625 265.9375 95.093099 265.9375 92.34375 C 265.9375 89.594403 267.91511 87.625 270.625 87.625 z M 176.75 139.71875 C 182.22509 139.60255 188.2957 141.65056 194.625 148.96875 C 200.11939 155.33092 202.79328 158.23551 204.625 160 A 9.2369074 9.2369074 0 0 0 204.71875 160.09375 L 205.1875 160.53125 A 9.2369074 9.2369074 0 0 0 206.09375 161.28125 L 206.65625 161.6875 A 9.2369074 9.2369074 0 0 0 207.5 162.21875 C 208.62951 162.85811 208.18826 162.56737 208.375 162.65625 C 208.56174 162.74513 208.79061 162.84155 209.0625 162.96875 C 209.58356 163.21251 210.27804 163.55961 211.09375 163.9375 C 206.79287 164.9168 203.29243 168.1812 201.9375 172.34375 C 200.29844 167.37015 195.5936 163.59375 190.15625 163.59375 L 189.125 163.59375 C 186.16497 163.59375 183.46872 164.89066 181.28125 166.75 C 179.01927 164.89398 176.2715 163.625 173.46875 163.625 L 166.59375 163.625 A 9.2369074 9.2369074 0 0 0 167.75 160.40625 L 167.8125 160 A 9.2369074 9.2369074 0 0 0 167.59375 156.15625 C 167.54395 155.97544 167.58524 156.10942 167.5625 156.03125 C 167.52936 155.82222 167.42691 154.97699 167.28125 153.1875 C 167.28067 153.17997 167.28183 153.16383 167.28125 153.15625 C 167.15503 151.51869 167.00992 148.8238 167.3125 146.40625 C 167.61648 143.9775 168.48751 142.35421 168.625 142.21875 A 9.2369074 9.2369074 0 0 0 168.65625 142.1875 C 169.20556 141.64306 171.61723 140.42623 171.4375 140.46875 A 9.2369074 9.2369074 0 0 0 171.5 140.4375 C 173.18012 140.02793 174.92497 139.75748 176.75 139.71875 z M 140.28125 160.5 L 149.84375 165.15625 C 147.3293 166.2342 145.14622 167.77961 143.5 169.5625 C 141.05837 172.20684 139.48346 175.18968 138.90625 178.59375 C 137.71484 178.34298 136.51563 177.96875 135.34375 177.96875 L 134.6875 177.96875 L 134.65625 177.96875 A 9.2369074 9.2369074 0 0 0 134.625 177.96875 C 132.88118 177.97532 131.42461 178.35548 130.0625 178.71875 C 134.29684 174.63757 137.62435 169.60588 139.53125 163.65625 A 9.2369074 9.2369074 0 0 0 139.5625 163.65625 C 139.88575 162.64311 140.05429 161.55537 140.28125 160.5 z M 106.96875 196.71875 L 107.25 196.71875 C 107.84631 196.71875 109.59042 197.03998 111.21875 198.375 C 110.77859 198.7583 110.29241 199.07365 109.78125 199.34375 C 108.63773 198.7301 107.69912 197.80566 106.96875 196.71875 z M 86.03125 197.34375 C 86.604433 197.61197 87.110067 197.99351 87.59375 198.40625 C 87.101928 198.83812 86.579552 199.21495 86 199.5 C 85.442061 199.22301 84.945299 198.85115 84.46875 198.4375 C 84.955463 198.02044 85.458045 197.61585 86.03125 197.34375 z M 62.28125 197.5 C 62.807632 197.77808 63.292596 198.16742 63.75 198.5625 C 63.294762 198.93079 62.817121 199.28281 62.28125 199.53125 C 61.712482 199.27554 61.216894 198.91988 60.75 198.53125 C 61.215664 198.1225 61.731289 197.7804 62.28125 197.5 z "
       style="fill:#b3b3b3;fill-opacity:1;stroke:none"
       id="path3269"
       d="m 172.3125,53.0625 c -18.8541,0.06512 -44.30255,3.420049 -75.90625,22.84375 A 0.13325303,0.13325303 0 0 0 96.375,75.9375 c -0.01032,0.01022 -0.02053,0.02053 -0.03125,0.03125 -0.01072,0.01072 -0.02103,0.02093 -0.03125,0.03125 l -1.03125,0.625 A 0.13325303,0.13325303 0 0 0 95.25,76.65625 l -0.03125,0.03125 c -18.70508,11.687842 -32.350411,26.57367 -39.5,44.28125 a 0.13325303,0.13325303 0 0 0 0,0.0312 0.13325303,0.13325303 0 0 0 0,0.0312 c -2.701728,6.72025 -5.815701,18.78771 -2.4375,32.1875 1.439491,5.7483 4.064107,11.20233 7.5,16.15625 a 0.13325303,0.13325303 0 0 0 0,0.0312 0.13325303,0.13325303 0 0 0 0,0.0312 0.13325303,0.13325303 0 0 0 0,0.0312 0.13325303,0.13325303 0 0 0 0,0.0312 0.13325303,0.13325303 0 0 0 0.03125,0 c 2.331398,3.35065 5.11117,6.30486 8.1875,8.90625 -1.002468,-0.23598 -2.02545,-0.4375 -3.09375,-0.4375 l -7.09375,0 c -7.950239,0 -14.90625,6.436 -14.90625,14.6875 l 0,11.5 c 0,8.03845 6.64908,14.75 14.71875,14.75 l 7.4375,0 c 0.588198,0 1.16618,-0.0815 1.71875,-0.15625 0.476706,5.41545 5.304843,10.1875 10.8125,10.1875 l 0.625,0 c 5.637075,0 10.282729,-4.51368 10.8125,-10.03125 2.660705,-0.15462 5.40659,-0.83225 7.84375,-2.40625 2.27334,1.5079 4.98703,2.40625 8,2.40625 l 7.6875,0 c 1.91622,0 3.8134,-0.87819 5.5625,-2.0625 1.73625,1.1845 3.6744,2.0625 5.84375,2.0625 l 0.65625,0 c 2.58173,0 4.93644,-1.10068 6.84375,-2.6875 1.90127,1.57124 4.21476,2.6875 6.75,2.6875 l 0.65625,0 c 2.02449,0 3.85055,-0.73166 5.5,-1.75 1.78521,1.00384 3.68695,1.71875 5.65625,1.71875 l 19.875,0 c 4.45304,0 9.02208,-1.72487 12.34375,-4.875 3.59961,3.11591 8.24963,5.09375 13.09375,5.09375 l 11.25,0 c 4.19035,0 8.20988,-1.5052 11.5625,-3.90625 2.35652,2.23421 5.46044,3.6875 8.53125,3.6875 l 19.875,0 c 3.58292,0 7.2714,-1.06018 10.3125,-3.125 2.18867,1.84105 4.87535,3.125 7.71875,3.125 l 24.34375,0 c 3.0915,0 6.24833,-1.45801 8.625,-3.75 2.37667,-2.29199 3.96875,-5.41544 3.96875,-8.6875 l 0,-0.8125 c 0,-4.12886 -2.68087,-7.8355 -6.125,-10.125 0.46247,-1.21465 0.78125,-2.49936 0.78125,-3.8125 l 0,-0.8125 c 0,-1.21465 -0.28725,-2.37313 -0.6875,-3.5 0.29964,-0.0326 0.58126,-0.11523 0.84375,-0.15625 0.0196,0.002 0.043,-0.003 0.0625,0 0.34884,0.0549 0.69933,0.21875 1.125,0.21875 l 0.15625,0 c 0.33041,0 0.58402,-0.12646 0.84375,-0.15625 0.01,0.002 0.0215,-0.002 0.0312,0 0.0639,0.0129 0.12457,0.0512 0.1875,0.0625 0.0725,0.013 0.14595,0.02 0.21875,0.0312 0.0728,0.0113 0.17695,0.0218 0.25,0.0312 0.0731,0.009 0.14549,0.0235 0.21875,0.0312 0.0733,0.008 0.14532,-0.006 0.21875,0 0.0734,0.006 0.1452,0.0271 0.21875,0.0312 0.0736,0.004 0.17637,-0.002 0.25,0 0.0736,0.002 0.14508,-5.7e-4 0.21875,0 5.11919,0 9.75,-3.66348 9.75,-9.71875 l 0,-3.84375 c 1.1e-4,-0.0746 0.002,-0.14416 0,-0.21875 -0.002,-0.0746 0.004,-0.17547 0,-0.25 -0.004,-0.0745 -0.0259,-0.14433 -0.0312,-0.21875 -0.005,-0.0744 0.007,-0.14449 0,-0.21875 -0.007,-0.0743 -0.0222,-0.17594 -0.0312,-0.25 -0.009,-0.0741 -0.0204,-0.14493 -0.0312,-0.21875 -0.0109,-0.0738 -0.0186,-0.14522 -0.0312,-0.21875 -0.0127,-0.0735 -0.0168,-0.1768 -0.0312,-0.25 -0.0145,-0.0732 -0.0462,-0.14593 -0.0625,-0.21875 -0.0163,-0.0728 -0.0444,-0.14635 -0.0625,-0.21875 -0.0181,-0.0724 -0.0427,-0.14682 -0.0625,-0.21875 -0.0198,-0.0719 -0.0409,-0.14733 -0.0625,-0.21875 -0.0216,-0.0714 -0.0392,-0.14788 -0.0625,-0.21875 -0.0233,-0.0709 -0.0374,-0.14848 -0.0625,-0.21875 -0.0251,-0.0703 -0.067,-0.14912 -0.0937,-0.21875 -0.0268,-0.0696 -0.034,-0.1498 -0.0625,-0.21875 -0.0285,-0.069 -0.0636,-0.15052 -0.0937,-0.21875 -0.0302,-0.0682 -0.0619,-0.12003 -0.0937,-0.1875 -0.0319,-0.0675 -0.0915,-0.15208 -0.125,-0.21875 -0.0335,-0.0667 -0.0586,-0.15293 -0.0937,-0.21875 -0.0351,-0.0658 -0.0883,-0.12256 -0.125,-0.1875 -0.0367,-0.0649 -0.0554,-0.12348 -0.0937,-0.1875 -0.0383,-0.064 -0.0851,-0.1557 -0.125,-0.21875 -0.0399,-0.0631 -0.0836,-0.12545 -0.125,-0.1875 -0.0414,-0.062 -0.0821,-0.12648 -0.125,-0.1875 -0.0429,-0.061 -0.11182,-0.12756 -0.15625,-0.1875 -0.0444,-0.0599 -0.0791,-0.12867 -0.125,-0.1875 -0.0459,-0.0588 -0.10893,-0.12981 -0.15625,-0.1875 -0.0473,-0.0577 -0.10752,-0.0998 -0.15625,-0.15625 -0.0487,-0.0565 -0.0749,-0.13221 -0.125,-0.1875 -0.0501,-0.0553 -0.1048,-0.10221 -0.15625,-0.15625 -0.0514,-0.054 -0.13474,-0.10349 -0.1875,-0.15625 -0.0528,-0.0528 -0.10221,-0.13605 -0.15625,-0.1875 -0.054,-0.0514 -0.10096,-0.10615 -0.15625,-0.15625 -0.0553,-0.0501 -0.131,-0.0763 -0.1875,-0.125 -0.0565,-0.0487 -0.0986,-0.10893 -0.15625,-0.15625 -0.0577,-0.0473 -0.12867,-0.11036 -0.1875,-0.15625 -0.0588,-0.0459 -0.12756,-0.0806 -0.1875,-0.125 -0.0599,-0.0444 -0.12648,-0.11331 -0.1875,-0.15625 -0.061,-0.0429 -0.12545,-0.0836 -0.1875,-0.125 -0.062,-0.0414 -0.12445,-0.0851 -0.1875,-0.125 -0.063,-0.0399 -0.15473,-0.0867 -0.21875,-0.125 -0.064,-0.0383 -0.12256,-0.057 -0.1875,-0.0937 -0.0649,-0.0368 -0.12168,-0.0899 -0.1875,-0.125 -0.0658,-0.0351 -0.15208,-0.0602 -0.21875,-0.0937 -0.0667,-0.0335 -0.15128,-0.0931 -0.21875,-0.125 -0.0675,-0.0319 -0.11927,-0.0636 -0.1875,-0.0937 -0.0682,-0.0302 -0.1498,-0.0652 -0.21875,-0.0937 -0.0689,-0.0285 -0.14912,-0.0357 -0.21875,-0.0625 -0.0696,-0.0268 -0.14848,-0.0687 -0.21875,-0.0937 -0.0703,-0.0251 -0.14788,-0.0392 -0.21875,-0.0625 -0.0709,-0.0233 -0.14733,-0.0409 -0.21875,-0.0625 -0.0714,-0.0216 -0.14682,-0.0427 -0.21875,-0.0625 -0.0719,-0.0198 -0.14635,-0.0444 -0.21875,-0.0625 -0.0724,-0.0181 -0.14593,-0.0462 -0.21875,-0.0625 -0.0728,-0.0163 -0.14555,-0.048 -0.21875,-0.0625 -0.0732,-0.0145 -0.17647,-0.0186 -0.25,-0.0312 -0.0735,-0.0127 -0.14493,-0.0204 -0.21875,-0.0312 -0.0738,-0.0109 -0.14469,-0.0222 -0.21875,-0.0312 -0.0741,-0.009 -0.17574,-0.024 -0.25,-0.0312 -0.0743,-0.007 -0.14433,0.005 -0.21875,0 -0.0744,-0.005 -0.14422,-0.0277 -0.21875,-0.0312 -0.0745,-0.004 -0.17541,0.002 -0.25,0 -0.0746,-0.002 -0.14414,-1.1e-4 -0.21875,0 l -0.5625,0 c -0.44344,0 -0.91531,0.24407 -1.3125,0.3125 -0.007,-0.001 -0.024,0.001 -0.0312,0 -0.13131,-0.0247 -0.32332,-0.1188 -0.5,-0.1875 -0.18643,-0.0725 -0.35491,-0.125 -0.53125,-0.125 l -4.40625,0 c -0.24636,0 -0.40833,0.12353 -0.5625,0.15625 -0.009,-0.004 -0.0226,0.004 -0.0312,0 -1.54339,-0.7312 -3.1767,-1.21875 -4.84375,-1.21875 l -23.25,0 -0.0312,0 c -2.83716,0 -5.53512,1.28024 -7.75,3.125 -2.26529,-1.83873 -5.01231,-3.09375 -7.8125,-3.09375 l -10.34375,0 c 0.007,-0.0512 0.0258,-0.10712 0.0312,-0.15625 0.0109,-0.0973 0.0235,-0.2149 0.0312,-0.3125 0.008,-0.0976 0.0267,-0.18345 0.0312,-0.28125 0.005,-0.0978 -0.001,-0.21461 0,-0.3125 l 0,-0.375 c -1.5e-4,-0.0634 0.001,-0.12415 0,-0.1875 -0.001,-0.0634 0.003,-0.15544 0,-0.21875 -0.003,-0.0633 0.004,-0.12426 0,-0.1875 -0.004,-0.0632 -0.0258,-0.12436 -0.0312,-0.1875 -0.005,-0.0631 0.007,-0.12449 0,-0.1875 -0.007,-0.063 -0.0232,-0.12464 -0.0312,-0.1875 -0.008,-0.0629 -0.0219,-0.15608 -0.0312,-0.21875 -0.009,-0.0627 -0.0206,-0.12504 -0.0312,-0.1875 -0.0107,-0.0625 -0.0193,-0.12527 -0.0312,-0.1875 -0.012,-0.0622 -0.018,-0.12554 -0.0312,-0.1875 -0.0133,-0.062 -0.0479,-0.12583 -0.0625,-0.1875 -0.0146,-0.0617 -0.0154,-0.12615 -0.0312,-0.1875 -0.0159,-0.0614 -0.0454,-0.12649 -0.0625,-0.1875 -0.0171,-0.061 -0.0441,-0.12686 -0.0625,-0.1875 -0.0184,-0.0606 -0.0428,-0.12726 -0.0625,-0.1875 -0.0197,-0.0602 -0.0416,-0.12768 -0.0625,-0.1875 -0.0209,-0.0598 -0.0403,-0.12813 -0.0625,-0.1875 -0.0222,-0.0594 -0.0391,-0.12861 -0.0625,-0.1875 -0.0234,-0.0589 -0.0379,-0.12911 -0.0625,-0.1875 -0.0246,-0.0584 -0.0679,-0.12964 -0.0937,-0.1875 -0.0258,-0.0579 -0.0355,-0.0989 -0.0625,-0.15625 -0.027,-0.0573 -0.0655,-0.13077 -0.0937,-0.1875 -0.0282,-0.0567 -0.0643,-0.10012 -0.0937,-0.15625 -0.0294,-0.0561 -0.0632,-0.13199 -0.0937,-0.1875 -0.0306,-0.0555 -0.062,-0.10139 -0.0937,-0.15625 -0.0317,-0.0549 -0.0609,-0.13332 -0.0937,-0.1875 -0.0329,-0.0542 -0.091,-0.10277 -0.125,-0.15625 -0.034,-0.0535 -0.0587,-0.10349 -0.0937,-0.15625 -0.0351,-0.0528 -0.0576,-0.13548 -0.0937,-0.1875 -0.0362,-0.052 -0.0877,-0.105 -0.125,-0.15625 -0.0373,-0.0513 -0.0867,-0.10579 -0.125,-0.15625 -0.0337,-0.0443 -0.0899,-0.0805 -0.125,-0.125 a 0.13325303,0.13325303 0 0 0 0,-0.0312 0.13325303,0.13325303 0 0 0 -0.0312,-0.0312 c -8e-5,-7e-5 -0.0312,-0.0312 -0.0312,-0.0312 l -0.0937,0.0625 -0.0937,0.0937 c 4e-5,8e-5 -0.0313,-0.0313 -0.0312,-0.0312 3e-5,6e-5 -1e-5,-0.0313 0,-0.0312 0,0 0.125,-0.0312 0.125,-0.0312 -4e-5,-1e-5 0.0626,-0.0937 0.0625,-0.0937 -0.005,-0.005 0.008,-0.0238 0,-0.0312 -0.0303,-0.0297 -0.0808,-0.0779 -0.0937,-0.0937 -0.0256,-0.0347 -0.0671,-0.0586 -0.0937,-0.0937 -0.005,-0.007 0.005,-0.0247 0,-0.0312 -0.004,-0.008 0.005,-0.0242 0,-0.0312 -0.23633,-0.32624 -0.57084,-0.81981 -1,-1.46875 -0.85762,-1.29682 -1.985,-3.15551 -3.03125,-5.25 -1.0445,-2.09097 -1.90781,-4.39639 -2.4375,-6.5 -0.52969,-2.10361 -0.73458,-3.9975 -0.53125,-5.21875 a 0.13325303,0.13325303 0 0 0 0,-0.0312 c 2e-5,-0.0103 2e-5,-0.021 0,-0.0312 0.49533,-0.0554 1.50865,-0.0611 3,0 1.55598,0.0637 3.60429,0.19213 6.03125,0.46875 3.3743,0.38401 7.47041,0.83377 11.96875,0.9375 0.0106,2.4e-4 0.0206,-2.4e-4 0.0312,0 0.0426,0.009 0.0835,0.0233 0.125,0.0312 a 0.13325303,0.13325303 0 0 0 0.0312,0 c 12.26456,0.0724 24.75419,-1.84335 34.1875,-5.96875 4.65847,-2.03739 8.29683,-3.39937 11.90625,-6.5625 0.0354,-0.031 0.052,-0.0532 0.0625,-0.0625 0.0797,-0.0704 0.17517,-0.12225 0.28125,-0.21875 a 0.13325303,0.13325303 0 0 0 0.0312,-0.0312 0.13325303,0.13325303 0 0 0 0,-0.0312 0.13325303,0.13325303 0 0 0 0,-0.0312 c 2.70873,-2.4012 3.32824,-4.57132 3.6875,-5.65625 l 0.0937,-0.25 c -0.003,0.01 0.0182,-0.007 0.0312,-0.0312 0.009,-0.017 0.0223,-0.0434 0.0312,-0.0625 0.004,-0.008 -0.004,-0.0205 0,-0.0312 l 0.125,-0.25 c 0.0288,-0.0735 0.0664,-0.1746 0.0937,-0.25 0.003,-0.008 -0.003,-0.023 0,-0.0312 0.83421,-2.14169 1.03982,-3.38893 1.3125,-4.6875 0.002,-0.0117 0.0288,-0.0195 0.0312,-0.0312 a 0.13325303,0.13325303 0 0 0 0.0312,-0.0312 0.13325303,0.13325303 0 0 0 0,-0.0312 c 0.009,-0.042 8.6e-4,-0.051 0,-0.0625 0.13142,-0.58767 0.38651,-1.51637 0.25,-3.28125 -0.0402,-0.51972 -0.31178,-1.23791 -0.5,-1.875 0.0245,-0.0404 0.0393,-0.0855 0.0625,-0.125 l 0.1875,-0.34375 c 0.03,-0.0546 0.0648,-0.101 0.0937,-0.15625 0.0289,-0.0553 0.0347,-0.13167 0.0625,-0.1875 0.0278,-0.0558 0.0671,-0.0999 0.0937,-0.15625 0.0266,-0.0564 0.0683,-0.13057 0.0937,-0.1875 0.0254,-0.0569 0.0382,-0.13006 0.0625,-0.1875 0.0243,-0.0574 0.0707,-0.0983 0.0937,-0.15625 0.0231,-0.0579 0.0406,-0.12911 0.0625,-0.1875 0.0219,-0.0584 0.0418,-0.12868 0.0625,-0.1875 0.0207,-0.0588 0.043,-0.12826 0.0625,-0.1875 0.0195,-0.0592 0.0442,-0.12788 0.0625,-0.1875 0.0183,-0.0596 0.0142,-0.12751 0.0312,-0.1875 0.017,-0.06 0.0467,-0.0959 0.0625,-0.15625 0.0158,-0.0603 0.048,-0.12687 0.0625,-0.1875 0.0145,-0.0606 0.018,-0.12658 0.0312,-0.1875 0.0133,-0.0609 0.0192,-0.12632 0.0312,-0.1875 0.012,-0.0612 0.0205,-0.15733 0.0312,-0.21875 0.0108,-0.0614 0.0217,-0.12588 0.0312,-0.1875 0.01,-0.0616 0.023,-0.12569 0.0312,-0.1875 0.008,-0.0618 0.0243,-0.12554 0.0312,-0.1875 0.007,-0.062 0.0256,-0.12541 0.0312,-0.1875 0.006,-0.0621 -0.004,-0.1253 0,-0.1875 0.004,-0.0622 -0.003,-0.12522 0,-0.1875 0.003,-0.0623 0.0294,-0.12517 0.0312,-0.1875 0.002,-0.0623 -5.8e-4,-0.1564 0,-0.21875 5.8e-4,-0.0623 7e-4,-0.12515 0,-0.1875 -7e-4,-0.0623 0.002,-0.12518 0,-0.1875 -0.002,-0.0623 -0.028,-0.12523 -0.0312,-0.1875 -0.003,-0.0623 0.005,-0.12531 0,-0.1875 -0.005,-0.0622 0.006,-0.12542 0,-0.1875 -0.006,-0.0621 -0.0242,-0.12555 -0.0312,-0.1875 -0.007,-0.0619 -0.0229,-0.15696 -0.0312,-0.21875 -0.008,-0.0618 -0.0216,-0.12589 -0.0312,-0.1875 -0.60795,-3.856489 -1.93717,-7.891883 -3.875,-13.28125 -1.93392,-5.378514 -3.01494,-10.249412 -7.96875,-15.375 -0.0204,-0.02063 -0.0419,-0.04207 -0.0625,-0.0625 -0.66258,-0.678183 -2.51674,-2.887789 -5.53125,-4.65625 a 0.13325303,0.13325303 0 0 0 -0.0312,0 c -0.008,-0.0046 -0.0234,0.0046 -0.0312,0 -8.93326,-5.200938 -20.74752,-8.183264 -31.15625,-10.5 -10.42002,-2.319249 -18.98859,-3.599657 -20.03125,-3.75 -0.0943,-0.01347 -0.21784,-0.02074 -0.3125,-0.03125 -0.0947,-0.01051 -0.18631,-0.02372 -0.28125,-0.03125 -0.0949,-0.0075 -0.18612,-0.0267 -0.28125,-0.03125 -0.0951,-0.0045 -0.21727,0.0016 -0.3125,0 -0.0952,-0.0016 -0.18602,-0.0014 -0.28125,0 -0.0952,0.0014 -0.21736,-0.0044 -0.3125,0 -0.0951,0.0044 -0.1863,0.02385 -0.28125,0.03125 -0.095,0.0074 -0.18658,0.02087 -0.28125,0.03125 -0.0947,0.01038 -0.2182,0.01791 -0.3125,0.03125 -0.0943,0.01334 -0.18741,0.01496 -0.28125,0.03125 -0.0938,0.01629 -0.18797,0.04327 -0.28125,0.0625 -0.0933,0.01923 -0.21987,0.04035 -0.3125,0.0625 -0.0926,0.02215 -0.18936,0.03746 -0.28125,0.0625 -0.0919,0.02504 -0.19019,0.06584 -0.28125,0.09375 -0.0911,0.02791 -0.19111,0.06299 -0.28125,0.09375 -0.0811,0.02768 -0.16842,0.06333 -0.25,0.09375 -0.009,0.0034 -0.0223,-0.0034 -0.0312,0 l -0.21875,0.09375 a 0.13325303,0.13325303 0 0 0 -0.0312,0 c -0.0655,0.02465 -0.1226,0.06759 -0.1875,0.09375 -0.0649,0.02616 -0.12322,0.03486 -0.1875,0.0625 -0.0643,0.02764 -0.15513,0.06463 -0.21875,0.09375 -0.0636,0.02912 -0.12457,0.06317 -0.1875,0.09375 -0.0629,0.03058 -0.12529,0.06173 -0.1875,0.09375 -0.0622,0.03202 -0.12604,0.0603 -0.1875,0.09375 -0.0615,0.03345 -0.12683,0.09014 -0.1875,0.125 -0.0607,0.03486 -0.12765,0.0575 -0.1875,0.09375 -0.0599,0.03625 -0.1285,0.08738 -0.1875,0.125 -0.059,0.03762 -0.12938,0.08604 -0.1875,0.125 -0.0581,0.03896 -0.1303,0.05345 -0.1875,0.09375 -0.0572,0.0403 -0.1,0.114647 -0.15625,0.15625 -0.0563,0.0416 -0.13222,0.08211 -0.1875,0.125 -0.0553,0.04289 -0.10197,0.08085 -0.15625,0.125 -0.0543,0.04415 -0.103,0.07961 -0.15625,0.125 -0.0532,0.04539 -0.13531,0.109643 -0.1875,0.15625 -0.0522,0.04661 -0.10515,0.108452 -0.15625,0.15625 -0.0511,0.0478 -0.10627,0.07604 -0.15625,0.125 -0.05,0.04896 -0.10741,0.106147 -0.15625,0.15625 -0.0488,0.0501 -0.0773,0.105034 -0.125,0.15625 -0.0477,0.05122 -0.10977,0.103949 -0.15625,0.15625 -0.0465,0.0523 -0.11099,0.134141 -0.15625,0.1875 -0.0453,0.05336 -0.081,0.101862 -0.125,0.15625 -0.044,0.05439 -0.0822,0.100861 -0.125,0.15625 -0.0428,0.05539 -0.0835,0.131141 -0.125,0.1875 -0.0415,0.05636 -0.0848,0.1302 -0.125,0.1875 -0.0402,0.0573 -0.0862,0.09804 -0.125,0.15625 -0.0388,0.05821 -0.0875,0.128409 -0.125,0.1875 -0.0375,0.05909 -0.0889,0.127561 -0.125,0.1875 -0.0361,0.05994 -0.059,0.126745 -0.0937,0.1875 -0.0347,0.06076 -0.0917,0.125961 -0.125,0.1875 -0.0178,0.03282 -0.0444,0.05927 -0.0625,0.09375 -10.21317,-2.801945 -25.69932,-6.375138 -41.8125,-6.9375 -3.6029,-0.126972 -7.58353,-0.296289 -11.9375,-0.28125 z m 65.40625,103.09375 0.0312,0.0312 c -0.004,-0.008 0.0101,-0.0178 0,-0.0312 1.8e-4,1.2e-4 -0.0314,-5e-5 -0.0312,0 z M 270.625,87.75 c 2.64534,0 4.5625,1.908296 4.5625,4.59375 0,2.685456 -1.91715,4.59375 -4.5625,4.59375 -2.64535,0 -4.5625,-1.908294 -4.5625,-4.59375 0,-2.685454 1.91716,-4.59375 4.5625,-4.59375 z m -93.875,52.09375 c 5.4398,-0.11545 11.47148,1.92314 17.78125,9.21875 5.49525,6.36317 8.16232,9.26102 10,11.03125 0.0306,0.031 0.0627,0.0632 0.0937,0.0937 l 0.46875,0.4375 c 0.0704,0.0663 0.14627,0.15477 0.21875,0.21875 0.0725,0.064 0.14427,0.12586 0.21875,0.1875 0.0745,0.0616 0.17359,0.12826 0.25,0.1875 0.0764,0.0592 0.14049,0.0995 0.21875,0.15625 a 0.13325303,0.13325303 0 0 0 0.0312,0 l 0.5625,0.40625 c 0.0669,0.0473 0.11937,0.11074 0.1875,0.15625 0.0681,0.0455 0.14942,0.0813 0.21875,0.125 0.0693,0.0437 0.14826,0.11448 0.21875,0.15625 0.0705,0.0418 0.14716,0.0851 0.21875,0.125 0.56582,0.32028 0.71799,0.40552 0.8125,0.4375 0.0118,0.004 0.0136,-0.002 0.0312,0 0.009,0.001 0.0178,0.001 0.0312,0 0.009,4.4e-4 0.0321,-2.3e-4 0.0312,0 0.18659,0.0879 0.39709,0.19126 0.65625,0.3125 0.4378,0.20481 1.06106,0.50214 1.71875,0.8125 -4.07877,1.05462 -7.37969,4.15099 -8.78125,8.09375 -1.74824,-4.86962 -6.39801,-8.53125 -11.78125,-8.53125 l -1.03125,0 c -2.96032,0 -5.65362,1.28901 -7.84375,3.125 -2.26335,-1.83237 -5.00541,-3.09375 -7.8125,-3.09375 l -6.65625,0 c 0.0343,-0.0617 0.0608,-0.125 0.0937,-0.1875 0.0329,-0.0625 0.0936,-0.12425 0.125,-0.1875 0.0314,-0.0633 0.0638,-0.15478 0.0937,-0.21875 0.03,-0.064 0.0653,-0.12285 0.0937,-0.1875 0.0285,-0.0647 0.0356,-0.12221 0.0625,-0.1875 0.0269,-0.0653 0.0683,-0.15285 0.0937,-0.21875 0.0254,-0.0659 0.0386,-0.12103 0.0625,-0.1875 0.0239,-0.0665 0.0714,-0.15174 0.0937,-0.21875 0.0223,-0.067 0.0417,-0.15124 0.0625,-0.21875 0.0208,-0.0675 0.0433,-0.11952 0.0625,-0.1875 0.0192,-0.068 0.0449,-0.15034 0.0625,-0.21875 0.0176,-0.0684 0.0153,-0.14995 0.0312,-0.21875 0.016,-0.0688 0.0481,-0.1496 0.0625,-0.21875 0.0144,-0.0692 0.0185,-0.11803 0.0312,-0.1875 0.0128,-0.0695 0.0201,-0.149 0.0312,-0.21875 l 0.0625,-0.40625 c 0.0121,-0.0787 0.0212,-0.17101 0.0312,-0.25 0.0101,-0.079 0.0232,-0.17077 0.0312,-0.25 0.008,-0.0792 0.0253,-0.17059 0.0312,-0.25 0.006,-0.0794 -0.004,-0.17046 0,-0.25 0.004,-0.0795 0.0295,-0.17038 0.0312,-0.25 0.002,-0.0796 3.5e-4,-0.13912 0,-0.21875 -3.5e-4,-0.0796 0.002,-0.1704 0,-0.25 -0.002,-0.0796 -0.0267,-0.17049 -0.0312,-0.25 -0.005,-0.0795 0.007,-0.17064 0,-0.25 -0.007,-0.0794 -0.0226,-0.17084 -0.0312,-0.25 -0.009,-0.0792 -0.0205,-0.1711 -0.0312,-0.25 -0.0108,-0.0789 -0.0184,-0.14016 -0.0312,-0.21875 -0.0128,-0.0786 -0.0476,-0.17177 -0.0625,-0.25 -0.0149,-0.0782 -0.0143,-0.17219 -0.0312,-0.25 -0.0169,-0.0778 -0.0435,-0.17266 -0.0625,-0.25 -0.019,-0.0773 -0.0415,-0.14193 -0.0625,-0.21875 -0.001,-0.004 -0.0301,0.004 -0.0312,0 0.006,-0.0117 0,-0.0312 0,-0.0312 1e-5,-4e-5 1e-5,-0.0312 0,-0.0312 -3e-5,-3.1e-4 7.9e-4,-0.028 0,-0.0312 -0.002,-0.006 0.003,-0.0212 0,-0.0312 -0.0311,-0.19611 -0.13572,-1.02466 -0.28125,-2.8125 1.5e-4,-0.006 0.001,-0.0136 0,-0.0312 -0.12596,-1.63419 -0.26916,-4.31852 0.0312,-6.71875 0.1505,-1.20244 0.44908,-2.21987 0.71875,-2.9375 0.13483,-0.35882 0.27171,-0.63943 0.375,-0.84375 0.0516,-0.10216 0.0898,-0.19179 0.125,-0.25 0.0352,-0.0582 0.0676,-0.0988 0.0625,-0.0937 0.0103,-0.0102 0.021,-0.021 0.0312,-0.0312 0.24066,-0.23853 0.97786,-0.69667 1.625,-1.0625 0.32357,-0.18292 0.63352,-0.35169 0.84375,-0.46875 0.10511,-0.0585 0.19639,-0.0924 0.25,-0.125 0.0134,-0.008 0.0209,-0.0245 0.0312,-0.0312 0.0103,-0.007 0.0193,-0.0211 0.0312,-0.0312 0.01,-0.002 0.0215,0.002 0.0312,0 1.6636,-0.40376 3.38437,-0.68048 5.1875,-0.71875 z m -9.1875,16.21875 c 0,0 0.0639,0.0379 0.0937,0.0625 -0.0111,0.01 -0.0312,0.0312 -0.0312,0.0312 0,0 -0.0625,0.0312 -0.0625,0.0312 0,0 -0.0312,0 -0.0312,0 0,0 -0.0312,0 -0.0312,0 0,0 0.0625,-0.125 0.0625,-0.125 z m -27.1875,4.625 9.15625,4.46875 c -2.42146,1.07875 -4.52223,2.57666 -6.125,4.3125 -2.42514,2.62648 -3.99426,5.59175 -4.59375,8.96875 -1.14279,-0.24843 -2.31082,-0.59375 -3.46875,-0.59375 l -0.65625,0 -0.0312,0 c -0.0103,-2e-5 -0.021,-2e-5 -0.0312,0 -1.58475,0.006 -2.91,0.32941 -4.15625,0.65625 4.07726,-4.01799 7.28517,-8.93555 9.15625,-14.71875 a 0.13325303,0.13325303 0 0 0 0.0312,-0.0312 0.13325303,0.13325303 0 0 0 0.0312,-0.0312 0.13325303,0.13325303 0 0 0 0,-0.0312 c 0.3115,-0.97631 0.47757,-1.99765 0.6875,-3 z m -33.125,36.15625 c 0.53394,0 2.18596,0.3049 3.75,1.53125 -0.38066,0.31492 -0.78375,0.57846 -1.21875,0.8125 -1.02122,-0.56178 -1.84665,-1.381 -2.53125,-2.34375 z M 86.03125,197.5 c 0.484307,0.23572 0.920199,0.55308 1.34375,0.90625 -0.431931,0.36731 -0.879484,0.68616 -1.375,0.9375 -0.472613,-0.24273 -0.896477,-0.55452 -1.3125,-0.90625 0.427746,-0.36156 0.860384,-0.69765 1.34375,-0.9375 z m -23.75,0.15625 c 0.443638,0.24316 0.849323,0.56556 1.25,0.90625 -0.395363,0.31349 -0.802392,0.59625 -1.25,0.8125 -0.478601,-0.22387 -0.905001,-0.51385 -1.3125,-0.84375 0.406804,-0.34064 0.841885,-0.62983 1.3125,-0.875 z" />
    <rect
       style="fill:#b3b3b3;fill-opacity:1"
       id="rect3271"
       width="30.405592"
       height="16.263456"
       x="259.86176"
       y="84.685982" />
    <rect
       style="fill:#b3b3b3;fill-opacity:1"
       id="rect3273"
       width="66.114487"
       height="10.606602"
       x="54.09367"
       y="192.51978" />
    <g
       id="g3263"
       style="fill:#ffffff"
       transform="translate(-140.89103,-8.3085048)">
      <path
         style="fill:#ffffff;fill-opacity:1;fill-rule:nonzero;stroke:none"
         d="m 412.38202,110.46642 c -5.46064,-0.20052 -9.74704,-4.80372 -9.56466,-10.27218 0.0841,-2.647543 1.21583,-5.094703 3.13905,-6.901493 1.93101,-1.80627 4.45313,-2.74648 7.10068,-2.64688 5.46845,0.19137 9.75604,4.7869 9.57234,10.263703 -0.0828,2.6392 -1.19901,5.08622 -3.13004,6.90083 -1.94002,1.79845 -4.46215,2.7388 -7.11751,2.65602 l 1.4e-4,0 z m 2.2983,-8.98258 c 2.43032,0 4.40267,-1.31476 4.40267,-2.929513 0,-1.62323 -1.97247,-2.93866 -4.40267,-2.93866 -2.43154,0 -4.3962,1.31543 -4.3962,2.93866 0,1.614753 1.96466,2.929513 4.3962,2.929513"
         id="path1977-7-2"
         inkscape:connector-curvature="0" />
      <path
         d="m 172.34375,62.4375 c -17.87747,0.06175 -40.87053,2.931904 -71.03125,21.46875 l -1.09375,0.6875 C 82.76086,95.48657 70.70993,108.8875 64.40625,124.5 c -1.97607,4.90744 -4.66003,16.01032 -2.03125,26.4375 1.14316,4.56497 3.26652,9.11942 6.125,13.21875 6.44269,9.25934 17.25406,15.40101 28.90625,16.4375 16.44542,1.46925 28.91013,-5.91686 33.34375,-19.75 3.04556,-9.54541 0.0206,-23.54259 -11.65625,-30.6875 -9.49657,-5.8222 -19.73622,-4.47398 -25.65625,-0.5625 -5.14415,3.41297 -8.05703,8.67768 -8,14.5 0.1142,10.31299 9.0206,15.80419 15.40625,15.8125 1.86122,0 3.70573,-0.31429 5.8125,-1 0.74353,-0.22905 1.47425,-0.48662 2.25,-0.96875 l 0.21875,-0.15625 0.0937,-0.0625 0.0625,-0.0312 c 1.42811,-0.98357 2.28125,-2.60341 2.28125,-4.3125 0,-0.47381 -0.0568,-0.9555 -0.1875,-1.4375 -0.75107,-2.60474 -3.35297,-4.17717 -6.03125,-3.6875 L 105,148.3125 l -0.5,0.15625 -0.6875,0.25 c -1.46978,0.36729 -2.58411,0.39872 -2.8125,0.40625 -0.75107,-0.0489 -4.4375,-1.1535 -4.4375,-5.1875 l 0,-0.0625 c 0.009,-1.4781 0.61076,-2.49917 0.9375,-3.0625 1.13485,-1.79652 4.26243,-3.56297 8.5,-3.1875 5.55326,0.47329 9.5339,3.31444 12.1875,8.6875 2.46639,4.99695 1.82272,11.14909 -1.65625,15.65625 -3.45417,4.46727 -9.59907,6.35948 -17.78125,5.46875 -8.2474,-0.90593 -15.22171,-5.67271 -19.125,-13.0625 -3.82144,-7.21857 -4.01841,-15.76283 -0.53125,-22.34375 8.35342,-15.75972 24.10219,-15.61959 32.75,-14.125 12.80353,2.21266 24.42491,12.46483 29.59375,26.09375 0.82472,2.17211 1.25772,3.90114 1.625,5.46875 l 0.5625,2.375 14.46875,7.0625 0.1875,0.125 0.34375,-0.0312 0.0625,-0.40625 c -0.09,-0.32674 -0.2976,-0.63701 -0.625,-4.6875 -0.2779,-3.58485 -0.85436,-13.40617 4.09375,-18.28125 1.91955,-1.90255 4.84461,-3.60942 7.15625,-4.15625 9.48006,-2.311 21.80359,-0.68207 32.3125,11.46875 5.42256,6.27899 8.07536,9.12421 9.40625,10.40625 l 0.46875,0.4375 0.5625,0.40625 c 0.43263,0.24489 18.0625,8.34375 18.0625,8.34375 l 0.34375,-0.0937 0,-0.375 c -0.11419,-0.1307 -11.14655,-14.42124 -9.1875,-26.1875 1.55162,-9.37406 8.99887,-8.51926 19.3125,-7.34375 3.3723,0.38378 7.21886,0.81622 11.1875,0.90625 11.0799,0.0654 23.01755,-1.96992 30.375,-5.1875 4.76036,-2.08196 7.78445,-3.45633 9.6875,-5.1875 0.68506,-0.56333 1.03833,-1.48863 1.40625,-2.46875 l 0.28125,-0.65625 c 0.30959,-0.79237 0.7408,-2.48331 0.9375,-3.40625 0.09,-0.40795 0.13047,-0.84241 -0.15625,-1.0625 l -1,0.1875 c -3.22511,1.9354 -11.31449,5.60292 -18.875,5.75 -9.36588,0.19539 -28.25086,-9.41673 -30.21875,-10.4375 l -0.1875,-0.21875 c -0.47445,-1.1273 -3.30993,-7.83791 -3.90625,-9.25 13.58824,8.94909 24.86869,13.91995 33.5,14.6875 9.6031,0.85708 17.0803,-4.38688 20.28125,-6.625 0.62803,-0.42444 1.1171,-0.77073 1.3125,-0.84375 l 0.1875,-0.34375 c -0.53162,-3.37231 -5.55533,-19.70521 -9.34375,-23.625 -1.05301,-1.07781 -1.89493,-2.12839 -3.59375,-3.125 C 268.74227,69.62293 236.1513,64.78258 234.625,64.5625 l -0.25,0.09375 -0.0937,0.21875 c 0,0 -0.13973,6.74829 -0.15625,7.5 -3.33177,-1.11081 -27.50231,-8.89577 -50.1875,-9.6875 -3.60542,-0.127061 -7.46818,-0.26425 -11.59375,-0.25 z M 270.625,78.375 c 7.70369,0 13.9375,6.247951 13.9375,13.96875 0,7.7208 -6.23381,13.96875 -13.9375,13.96875 -7.70369,0 -13.9375,-6.24795 -13.9375,-13.96875 0,-7.720799 6.23381,-13.96875 13.9375,-13.96875 z m -113.40625,94.46875 c -6.02345,0 -9.34375,5.09046 -9.34375,8.625 l 0,4.53125 c 0,5.18966 4.24228,8.40625 8.1875,8.40625 l 13.8125,0 c 1.72999,0 2.09375,1.13542 2.09375,2.09375 l 0,2.9375 c 0,0.31096 -0.0525,3.125 -2.09375,3.125 l -18.84375,0 c -1.867,0 -3.25,1.28282 -3.25,3.0625 l 0,0.8125 c 0,1.76726 1.37058,3.0625 3.25,3.0625 l 19.875,0 c 5.18966,0 8.5625,-3.58716 8.5625,-9.1875 l 0,-4.90625 c 0,-5.2521 -3.78517,-7.59375 -7.53125,-7.59375 l -13.59375,0 c -2.05369,0 -2.96875,-1.52997 -2.96875,-2.625 l 0,-2.6875 c 0,-1.70482 1.10251,-2.6875 3.09375,-2.6875 l 15.0625,0 c 1.84184,0 3.25,-1.30765 3.25,-3.0625 l 0,-0.8125 c 0,-1.74241 -1.43341,-3.0625 -3.3125,-3.0625 l -16.21875,0 -0.0312,-0.0312 z m 31.90625,0 c -1.79212,0 -3.21875,1.41421 -3.21875,3.21875 l 0,24.03125 c 0,5.58792 4.37679,9.625 10.4375,9.625 l 11.25,0 c 6.06071,0 10.4375,-4.03708 10.4375,-9.625 l 0,-24.03125 c 0,-1.80454 -1.4142,-3.21875 -3.21875,-3.21875 l -1.03125,0 -0.0312,0 c -1.7797,0 -3.21875,1.43906 -3.21875,3.21875 l 0,23.15625 c 0,1.84181 -1.48309,3.3125 -3.3125,3.3125 l -10.53125,0 c -1.84183,0 -3.3125,-1.47069 -3.3125,-3.3125 l 0,-23.15625 c 0,-1.77969 -1.42662,-3.21875 -3.21875,-3.21875 l -1.03125,0 z m 44.75,0 c -6.02342,0 -9.34375,5.09046 -9.34375,8.625 l 0,4.53125 c 0,5.18966 4.25472,8.40625 8.1875,8.40625 l 13.8125,0 c 1.73,0 2.09375,1.13542 2.09375,2.09375 l 0,2.9375 c 0,0.31096 -0.0524,3.125 -2.09375,3.125 l -18.84375,0 c -1.86699,0 -3.21875,1.28282 -3.21875,3.0625 l 0,0.8125 c 0,1.76726 1.35176,3.0625 3.21875,3.0625 l 19.875,0 c 5.20209,0 8.53125,-3.58716 8.53125,-9.1875 l 0,-4.90625 c 0,-5.2521 -3.77272,-7.59375 -7.53125,-7.59375 l -13.5625,0 c -2.05337,0 -3,-1.52997 -3,-2.625 l 0,-2.6875 c 0,-1.70482 1.14618,-2.6875 3.125,-2.6875 l 15.0625,0 c 1.8294,0 3.21875,-1.30765 3.21875,-3.0625 l 0,-0.8125 c 0,-1.74241 -1.42067,-3.0625 -3.3125,-3.0625 l -16.21875,0 0,-0.0312 z m 31.78125,0 c -1.77938,0 -3.15625,1.30767 -3.15625,3.0625 l 0,30.53125 c 0,1.74241 1.32648,3.0625 3.09375,3.0625 l 24.34375,0 c 1.86699,0 3.21875,-1.28281 3.21875,-3.0625 l 0,-0.8125 c 0,-1.76726 -1.33933,-3.0625 -3.21875,-3.0625 l -19.9375,0 0,-7.78125 14.59375,0 c 1.86667,0 3.21875,-1.30162 3.21875,-3.09375 l 0,-0.8125 c 0,-1.7797 -1.35208,-3.0625 -3.21875,-3.0625 l -14.59375,0 0,-8 18.9375,0 c 1.867,0 3.21875,-1.2828 3.21875,-3.0625 l 0,-0.8125 c 0,-1.7797 -1.35175,-3.09375 -3.21875,-3.09375 l -23.25,0 -0.0312,0 z m 28.71875,1.0625 c -0.18669,0 -0.34375,0.14462 -0.34375,0.34375 l 0,0.15625 c 0,0.19881 0.15706,0.34375 0.34375,0.34375 l 1.25,0 0,2.96875 c 0,0.18669 0.15705,0.34375 0.34375,0.34375 l 0.15625,0 c 0.1988,0 0.375,-0.15706 0.375,-0.34375 l 0,-2.96875 1.6875,0 0,2.96875 c 0,0.18669 0.15706,0.34375 0.34375,0.34375 l 0.15625,0 c 0.19912,0 0.375,-0.15706 0.375,-0.34375 l 0,-2.5 0.5625,0.84375 c 0.0621,0.087 0.1506,0.125 0.25,0.125 l 0.0625,0 c 0.0994,0 0.21915,-0.038 0.28125,-0.125 l 0.5625,-0.84375 0,2.5 c 0,0.18669 0.15705,0.34375 0.34375,0.34375 l 0.15625,0 0.0625,0.0312 c 0.19912,0 0.375,-0.15706 0.375,-0.34375 l 0,-3.84375 -0.5625,0 c -0.1867,0 -0.3129,0.069 -0.375,0.15625 l -0.8125,1.28125 -0.84375,-1.28125 c -0.0625,-0.0998 -0.16947,-0.15625 -0.34375,-0.15625 l -4.40625,0 z m -206.09375,13.3125 c -2.15309,0 -3.75573,0.78403 -5.0625,1.40625 -0.78404,0.37309 -1.46485,0.6875 -2,0.6875 -0.22401,0 -0.45048,-0.10697 -0.5625,-0.28125 l -0.46875,-0.9375 c -0.11202,-0.24883 -0.62774,-0.75 -1.25,-0.75 l -0.71875,0 c -0.69693,0 -1.25,0.6225 -1.25,1.40625 l 0,29.1875 c 0,0.90832 0.70406,1.625 1.625,1.625 l 0.625,0 c 0.89606,0 1.625,-0.7291 1.625,-1.625 l 0,-9.6875 c 0,-0.2861 0.20076,-0.5625 0.375,-0.5625 0.53515,0 1.2035,0.28285 2,0.65625 1.29431,0.58494 2.90941,1.34375 5.0625,1.34375 l 0.6875,0 c 3.79579,0 6.15625,-2.17142 6.15625,-5.65625 l 0,-11.125 c 0,-3.43482 -2.41016,-5.6875 -6.15625,-5.6875 l -0.6875,0 z m 46.375,0 c -2.12479,0.008 -3.74324,0.75588 -5.03125,1.375 -0.80892,0.37309 -1.5024,0.71875 -2.0625,0.71875 -0.24882,0 -0.34455,-0.0388 -0.53125,-0.375 l -0.46875,-0.8125 c -0.24883,-0.51007 -0.68387,-0.78125 -1.28125,-0.78125 l -0.625,0 c -0.7589,0 -1.3125,0.5849 -1.3125,1.40625 l 0,19.15625 c 0,0.90865 0.71636,1.625 1.625,1.625 l 0.65625,0 c 0.89622,0 1.625,-0.71635 1.625,-1.625 l 0,-14.5 c 0,-1.35659 1.11215,-2.46875 2.46875,-2.46875 l 5.40625,0 c 1.35659,0 2.46875,1.11216 2.46875,2.46875 l 0,14.5 c 0,0.90865 0.71635,1.625 1.625,1.625 l 0.65625,0 c 0.8959,0 1.625,-0.71635 1.625,-1.625 l 0,-15.03125 c 0,-3.43481 -2.41016,-5.65625 -6.15625,-5.65625 l -0.65625,0 -0.0312,0 z m -75.84375,0.125 c -3.03665,0 -5.53125,2.38776 -5.53125,5.3125 l 0,11.5 c 0,2.96201 2.40665,5.375 5.34375,5.375 l 7.4375,0 c 2.93711,0 5.34375,-2.41299 5.34375,-5.375 l 0,-11.5 c 0,-2.91231 -2.46333,-5.3125 -5.5,-5.3125 l -7.09375,0 z m 47.34375,0 c -3.03657,0 -5.53125,2.38776 -5.53125,5.3125 l 0,11.40625 c 0,2.96201 2.41255,5.46875 5.25,5.46875 l 7.6875,0 c 0.94561,0 1.625,-0.63535 1.625,-1.53125 l 0,-0.5 c 0,-0.8959 -0.67939,-1.53125 -1.625,-1.53125 l -6.3125,0 c -1.76727,0 -2.6875,-0.87613 -2.6875,-2.53125 l 0,-3.3125 11.375,0 c 1.81697,0 2.90625,-1.13941 2.90625,-3.03125 l 0,-4.4375 c 0,-2.91232 -2.46343,-5.28125 -5.5,-5.28125 l -7.1875,0 0,-0.0312 z m -46.71875,3.625 5.8125,0 c 1.20721,0 2.21875,1.0304 2.21875,2.25 l 0,10.5 c 0,1.23235 -0.98666,2.21875 -2.21875,2.21875 l -5.84375,0 c -1.23208,0 -2.1875,-0.96155 -2.1875,-2.21875 l 0,-10.5 c 0,-1.23234 0.98667,-2.25 2.21875,-2.25 z m 23.875,0 5.40625,0 c 1.38145,0 2.46875,1.08731 2.46875,2.46875 l 0,10.0625 c 0,1.35659 -1.09973,2.4375 -2.46875,2.4375 l -5.40625,0 c -1.35654,0 -2.46875,-1.08091 -2.46875,-2.4375 l 0,-10.0625 c 0,-1.38144 1.08733,-2.46875 2.46875,-2.46875 z m 23.4375,0 5.96875,0 c 1.23234,0 2.1875,0.95546 2.1875,2.1875 l 0,3.5625 -10.375,0 0,-3.5625 c 0,-1.21961 0.98673,-2.1875 2.21875,-2.1875 z"
         id="path3240-7"
         style="fill:#ffffff;fill-opacity:1;stroke:none"
         inkscape:original="M 172.34375 62.4375 C 154.46628 62.49925 131.47322 65.369404 101.3125 83.90625 L 100.21875 84.59375 C 82.76086 95.48657 70.70993 108.8875 64.40625 124.5 C 62.43018 129.40744 59.74622 140.51032 62.375 150.9375 C 63.51816 155.50247 65.64152 160.05692 68.5 164.15625 C 74.94269 173.41559 85.75406 179.55726 97.40625 180.59375 C 113.85167 182.063 126.31638 174.67689 130.75 160.84375 C 133.79556 151.29834 130.7706 137.30116 119.09375 130.15625 C 109.59718 124.33405 99.35753 125.68227 93.4375 129.59375 C 88.29335 133.00672 85.38047 138.27143 85.4375 144.09375 C 85.5517 154.40674 94.4581 159.89794 100.84375 159.90625 C 102.70497 159.90625 104.54948 159.59196 106.65625 158.90625 C 107.39978 158.6772 108.1305 158.41963 108.90625 157.9375 L 109.125 157.78125 L 109.21875 157.71875 L 109.28125 157.6875 C 110.70936 156.70393 111.5625 155.08409 111.5625 153.375 C 111.5625 152.90119 111.5057 152.4195 111.375 151.9375 C 110.62393 149.33276 108.02203 147.76033 105.34375 148.25 L 105 148.3125 L 104.5 148.46875 L 103.8125 148.71875 C 102.34272 149.08604 101.22839 149.11747 101 149.125 C 100.24893 149.0761 96.5625 147.9715 96.5625 143.9375 L 96.5625 143.875 C 96.5715 142.3969 97.17326 141.37583 97.5 140.8125 C 98.63485 139.01598 101.76243 137.24953 106 137.625 C 111.55326 138.09829 115.5339 140.93944 118.1875 146.3125 C 120.65389 151.30945 120.01022 157.46159 116.53125 161.96875 C 113.07708 166.43602 106.93218 168.32823 98.75 167.4375 C 90.5026 166.53157 83.52829 161.76479 79.625 154.375 C 75.80356 147.15643 75.60659 138.61217 79.09375 132.03125 C 87.44717 116.27153 103.19594 116.41166 111.84375 117.90625 C 124.64728 120.11891 136.26866 130.37108 141.4375 144 C 142.26222 146.17211 142.69522 147.90114 143.0625 149.46875 L 143.625 151.84375 L 158.09375 158.90625 L 158.28125 159.03125 L 158.625 159 L 158.6875 158.59375 C 158.5975 158.26701 158.3899 157.95674 158.0625 153.90625 C 157.7846 150.3214 157.20814 140.50008 162.15625 135.625 C 164.0758 133.72245 167.00086 132.01558 169.3125 131.46875 C 178.79256 129.15775 191.11609 130.78668 201.625 142.9375 C 207.04756 149.21649 209.70036 152.06171 211.03125 153.34375 L 211.5 153.78125 L 212.0625 154.1875 C 212.49513 154.43239 230.125 162.53125 230.125 162.53125 L 230.46875 162.4375 L 230.46875 162.0625 C 230.35456 161.9318 219.3222 147.64126 221.28125 135.875 C 222.83287 126.50094 230.28012 127.35574 240.59375 128.53125 C 243.96605 128.91503 247.81261 129.34747 251.78125 129.4375 C 262.86115 129.5029 274.7988 127.46758 282.15625 124.25 C 286.91661 122.16804 289.9407 120.79367 291.84375 119.0625 C 292.52881 118.49917 292.88208 117.57387 293.25 116.59375 L 293.53125 115.9375 C 293.84084 115.14513 294.27205 113.45419 294.46875 112.53125 C 294.55875 112.1233 294.59922 111.68884 294.3125 111.46875 L 293.3125 111.65625 C 290.08739 113.59165 281.99801 117.25917 274.4375 117.40625 C 265.07162 117.60164 246.18664 107.98952 244.21875 106.96875 L 244.03125 106.75 C 243.5568 105.6227 240.72132 98.91209 240.125 97.5 C 253.71324 106.44909 264.99369 111.41995 273.625 112.1875 C 283.2281 113.04458 290.7053 107.80062 293.90625 105.5625 C 294.53428 105.13806 295.02335 104.79177 295.21875 104.71875 L 295.40625 104.375 C 294.87463 101.00269 289.85092 84.66979 286.0625 80.75 C 285.00949 79.67219 284.16757 78.62161 282.46875 77.625 C 268.74227 69.62293 236.1513 64.78258 234.625 64.5625 L 234.375 64.65625 L 234.28125 64.875 C 234.28125 64.875 234.14152 71.62329 234.125 72.375 C 230.79323 71.26419 206.62269 63.47923 183.9375 62.6875 C 180.33208 62.560439 176.46932 62.42325 172.34375 62.4375 z M 270.625 78.375 C 278.32869 78.375 284.5625 84.622951 284.5625 92.34375 C 284.5625 100.06455 278.32869 106.3125 270.625 106.3125 C 262.92131 106.3125 256.6875 100.06455 256.6875 92.34375 C 256.6875 84.622951 262.92131 78.375 270.625 78.375 z M 157.21875 172.84375 C 151.1953 172.84375 147.875 177.93421 147.875 181.46875 L 147.875 186 C 147.875 191.18966 152.11728 194.40625 156.0625 194.40625 L 169.875 194.40625 C 171.60499 194.40625 171.96875 195.54167 171.96875 196.5 L 171.96875 199.4375 C 171.96875 199.74846 171.91625 202.5625 169.875 202.5625 L 151.03125 202.5625 C 149.16425 202.5625 147.78125 203.84532 147.78125 205.625 L 147.78125 206.4375 C 147.78125 208.20476 149.15183 209.5 151.03125 209.5 L 170.90625 209.5 C 176.09591 209.5 179.46875 205.91284 179.46875 200.3125 L 179.46875 195.40625 C 179.46875 190.15415 175.68358 187.8125 171.9375 187.8125 L 158.34375 187.8125 C 156.29006 187.8125 155.375 186.28253 155.375 185.1875 L 155.375 182.5 C 155.375 180.79518 156.47751 179.8125 158.46875 179.8125 L 173.53125 179.8125 C 175.37309 179.8125 176.78125 178.50485 176.78125 176.75 L 176.78125 175.9375 C 176.78125 174.19509 175.34784 172.875 173.46875 172.875 L 157.25 172.875 L 157.21875 172.84375 z M 189.125 172.84375 C 187.33288 172.84375 185.90625 174.25796 185.90625 176.0625 L 185.90625 200.09375 C 185.90625 205.68167 190.28304 209.71875 196.34375 209.71875 L 207.59375 209.71875 C 213.65446 209.71875 218.03125 205.68167 218.03125 200.09375 L 218.03125 176.0625 C 218.03125 174.25796 216.61705 172.84375 214.8125 172.84375 L 213.78125 172.84375 L 213.75 172.84375 C 211.9703 172.84375 210.53125 174.28281 210.53125 176.0625 L 210.53125 199.21875 C 210.53125 201.06056 209.04816 202.53125 207.21875 202.53125 L 196.6875 202.53125 C 194.84567 202.53125 193.375 201.06056 193.375 199.21875 L 193.375 176.0625 C 193.375 174.28281 191.94838 172.84375 190.15625 172.84375 L 189.125 172.84375 z M 233.875 172.84375 C 227.85158 172.84375 224.53125 177.93421 224.53125 181.46875 L 224.53125 186 C 224.53125 191.18966 228.78597 194.40625 232.71875 194.40625 L 246.53125 194.40625 C 248.26125 194.40625 248.625 195.54167 248.625 196.5 L 248.625 199.4375 C 248.625 199.74846 248.5726 202.5625 246.53125 202.5625 L 227.6875 202.5625 C 225.82051 202.5625 224.46875 203.84532 224.46875 205.625 L 224.46875 206.4375 C 224.46875 208.20476 225.82051 209.5 227.6875 209.5 L 247.5625 209.5 C 252.76459 209.5 256.09375 205.91284 256.09375 200.3125 L 256.09375 195.40625 C 256.09375 190.15415 252.32103 187.8125 248.5625 187.8125 L 235 187.8125 C 232.94663 187.8125 232 186.28253 232 185.1875 L 232 182.5 C 232 180.79518 233.14618 179.8125 235.125 179.8125 L 250.1875 179.8125 C 252.0169 179.8125 253.40625 178.50485 253.40625 176.75 L 253.40625 175.9375 C 253.40625 174.19509 251.98558 172.875 250.09375 172.875 L 233.875 172.875 L 233.875 172.84375 z M 265.65625 172.84375 C 263.87687 172.84375 262.5 174.15142 262.5 175.90625 L 262.5 206.4375 C 262.5 208.17991 263.82648 209.5 265.59375 209.5 L 289.9375 209.5 C 291.80449 209.5 293.15625 208.21719 293.15625 206.4375 L 293.15625 205.625 C 293.15625 203.85774 291.81692 202.5625 289.9375 202.5625 L 270 202.5625 L 270 194.78125 L 284.59375 194.78125 C 286.46042 194.78125 287.8125 193.47963 287.8125 191.6875 L 287.8125 190.875 C 287.8125 189.0953 286.46042 187.8125 284.59375 187.8125 L 270 187.8125 L 270 179.8125 L 288.9375 179.8125 C 290.8045 179.8125 292.15625 178.5297 292.15625 176.75 L 292.15625 175.9375 C 292.15625 174.1578 290.8045 172.84375 288.9375 172.84375 L 265.6875 172.84375 L 265.65625 172.84375 z M 294.375 173.90625 C 294.18831 173.90625 294.03125 174.05087 294.03125 174.25 L 294.03125 174.40625 C 294.03125 174.60506 294.18831 174.75 294.375 174.75 L 295.625 174.75 L 295.625 177.71875 C 295.625 177.90544 295.78205 178.0625 295.96875 178.0625 L 296.125 178.0625 C 296.3238 178.0625 296.5 177.90544 296.5 177.71875 L 296.5 174.75 L 298.1875 174.75 L 298.1875 177.71875 C 298.1875 177.90544 298.34456 178.0625 298.53125 178.0625 L 298.6875 178.0625 C 298.88662 178.0625 299.0625 177.90544 299.0625 177.71875 L 299.0625 175.21875 L 299.625 176.0625 C 299.6871 176.1495 299.7756 176.1875 299.875 176.1875 L 299.9375 176.1875 C 300.0369 176.1875 300.15665 176.1495 300.21875 176.0625 L 300.78125 175.21875 L 300.78125 177.71875 C 300.78125 177.90544 300.9383 178.0625 301.125 178.0625 L 301.28125 178.0625 L 301.34375 178.09375 C 301.54287 178.09375 301.71875 177.93669 301.71875 177.75 L 301.71875 173.90625 L 301.15625 173.90625 C 300.96955 173.90625 300.84335 173.97525 300.78125 174.0625 L 299.96875 175.34375 L 299.125 174.0625 C 299.0625 173.9627 298.95553 173.90625 298.78125 173.90625 L 294.375 173.90625 z M 88.28125 187.21875 C 86.12816 187.21875 84.52552 188.00278 83.21875 188.625 C 82.43471 188.99809 81.7539 189.3125 81.21875 189.3125 C 80.99474 189.3125 80.76827 189.20553 80.65625 189.03125 L 80.1875 188.09375 C 80.07548 187.84492 79.55976 187.34375 78.9375 187.34375 L 78.21875 187.34375 C 77.52182 187.34375 76.96875 187.96625 76.96875 188.75 L 76.96875 217.9375 C 76.96875 218.84582 77.67281 219.5625 78.59375 219.5625 L 79.21875 219.5625 C 80.11481 219.5625 80.84375 218.8334 80.84375 217.9375 L 80.84375 208.25 C 80.84375 207.9639 81.04451 207.6875 81.21875 207.6875 C 81.7539 207.6875 82.42225 207.97035 83.21875 208.34375 C 84.51306 208.92869 86.12816 209.6875 88.28125 209.6875 L 88.96875 209.6875 C 92.76454 209.6875 95.125 207.51608 95.125 204.03125 L 95.125 192.90625 C 95.125 189.47143 92.71484 187.21875 88.96875 187.21875 L 88.28125 187.21875 z M 134.65625 187.21875 C 132.53146 187.22675 130.91301 187.97463 129.625 188.59375 C 128.81608 188.96684 128.1226 189.3125 127.5625 189.3125 C 127.31368 189.3125 127.21795 189.2737 127.03125 188.9375 L 126.5625 188.125 C 126.31367 187.61493 125.87863 187.34375 125.28125 187.34375 L 124.65625 187.34375 C 123.89735 187.34375 123.34375 187.92865 123.34375 188.75 L 123.34375 207.90625 C 123.34375 208.8149 124.06011 209.53125 124.96875 209.53125 L 125.625 209.53125 C 126.52122 209.53125 127.25 208.8149 127.25 207.90625 L 127.25 193.40625 C 127.25 192.04966 128.36215 190.9375 129.71875 190.9375 L 135.125 190.9375 C 136.48159 190.9375 137.59375 192.04966 137.59375 193.40625 L 137.59375 207.90625 C 137.59375 208.8149 138.3101 209.53125 139.21875 209.53125 L 139.875 209.53125 C 140.7709 209.53125 141.5 208.8149 141.5 207.90625 L 141.5 192.875 C 141.5 189.44019 139.08984 187.21875 135.34375 187.21875 L 134.6875 187.21875 L 134.65625 187.21875 z M 58.8125 187.34375 C 55.77585 187.34375 53.28125 189.73151 53.28125 192.65625 L 53.28125 204.15625 C 53.28125 207.11826 55.6879 209.53125 58.625 209.53125 L 66.0625 209.53125 C 68.99961 209.53125 71.40625 207.11826 71.40625 204.15625 L 71.40625 192.65625 C 71.40625 189.74394 68.94292 187.34375 65.90625 187.34375 L 58.8125 187.34375 z M 106.15625 187.34375 C 103.11968 187.34375 100.625 189.73151 100.625 192.65625 L 100.625 204.0625 C 100.625 207.02451 103.03755 209.53125 105.875 209.53125 L 113.5625 209.53125 C 114.50811 209.53125 115.1875 208.8959 115.1875 208 L 115.1875 207.5 C 115.1875 206.6041 114.50811 205.96875 113.5625 205.96875 L 107.25 205.96875 C 105.48273 205.96875 104.5625 205.09262 104.5625 203.4375 L 104.5625 200.125 L 115.9375 200.125 C 117.75447 200.125 118.84375 198.98559 118.84375 197.09375 L 118.84375 192.65625 C 118.84375 189.74393 116.38032 187.375 113.34375 187.375 L 106.15625 187.375 L 106.15625 187.34375 z M 59.4375 190.96875 L 65.25 190.96875 C 66.45721 190.96875 67.46875 191.99915 67.46875 193.21875 L 67.46875 203.71875 C 67.46875 204.9511 66.48209 205.9375 65.25 205.9375 L 59.40625 205.9375 C 58.17417 205.9375 57.21875 204.97595 57.21875 203.71875 L 57.21875 193.21875 C 57.21875 191.98641 58.20542 190.96875 59.4375 190.96875 z M 83.3125 190.96875 L 88.71875 190.96875 C 90.1002 190.96875 91.1875 192.05606 91.1875 193.4375 L 91.1875 203.5 C 91.1875 204.85659 90.08777 205.9375 88.71875 205.9375 L 83.3125 205.9375 C 81.95596 205.9375 80.84375 204.85659 80.84375 203.5 L 80.84375 193.4375 C 80.84375 192.05606 81.93108 190.96875 83.3125 190.96875 z M 106.75 190.96875 L 112.71875 190.96875 C 113.95109 190.96875 114.90625 191.92421 114.90625 193.15625 L 114.90625 196.71875 L 104.53125 196.71875 L 104.53125 193.15625 C 104.53125 191.93664 105.51798 190.96875 106.75 190.96875 z "
         inkscape:radius="0"
         sodipodi:type="inkscape:offset"
         transform="translate(141.75871,8.3867671)" />
    </g>
  </g>
</svg>
